<?xml version="1.0" encoding="utf-8"?>
<!-- Generator: Adobe Illustrator 16.0.0, SVG Export Plug-In . SVG Version: 6.00 Build 0)  -->
<!DOCTYPE svg PUBLIC "-//W3C//DTD SVG 1.1//EN" "http://www.w3.org/Graphics/SVG/1.1/DTD/svg11.dtd">
<svg version="1.1" id="Calque_1" xmlns="http://www.w3.org/2000/svg" xmlns:xlink="http://www.w3.org/1999/xlink" x="0px" y="0px"
	 width="1000px" height="1000px" viewBox="0 0 1000 1000" enable-background="new 0 0 1000 1000" xml:space="preserve">
<defs>
	
	<script  language="JavaScript" xlink:href="SVG.js"></script>
</defs>
<g id="Calque_1_1_">
	
		<image overflow="visible" enable-background="new    " width="800" height="627" xlink:href="Omaha-beach.jpg"  transform="matrix(1 0 0 1 100 186)">
	</image>
</g>
<path id="Boat" onclick="notify(this, &quot;select&quot;);" opacity="0.3" fill="#6DA4B5" d="M876.455,445.6
	c-0.533-0.501-0.98-0.841-1.324-1.013c-1.853-0.925-3.938-2.314-3.938-2.314l-2.779-3.938c0,0-0.496-0.755-1.233-1.725l7.818,7.155
	C874.999,443.765,875.56,444.461,876.455,445.6z M863.344,431.793c6.521,3.413,4.067,4.509,3.706,4.642
	c-1.355-1.765-3.439-4.122-4.888-4.122c-1.794,0-5.396,0.284-7.896,1.703C855.81,431.948,858.804,429.418,863.344,431.793z
	 M854.351,450.417c0.037-0.008,0.062-0.036,0.094-0.05l1.231,0.705c0,0-1.188,0.335-2.333,1.138
	C853.582,451.222,853.907,450.506,854.351,450.417z M841.782,466.821c0.023-0.126,0.05-0.303,0.071-0.505l0.51,4.058l3.402,2.092
	c-0.532,0.838-0.975,0.947-0.975,0.608c0-0.695-4.863-4.169-4.863-4.169S841.551,467.978,841.782,466.821z M604.242,418.161
	c5.662-2.662,12.32,0,12.32,0l7.327,0.332v11.642c0,0,3.173,2.907,5.855,5.64c-0.293-0.185-0.595-0.342-0.912-0.441
	c-3.166-1-5.5,0.167-5.5,0.167s1.166-15.5-10-17.833c0,0-7.505-1.301-12.683,3.796C601.565,420.078,602.734,418.869,604.242,418.161
	z M396.75,600.75c-0.354,0.708-0.67,1.371-0.969,2.014l-0.031-0.014l-20.25-1.25v-9.25l17-5.5c0,0-2.367-4.219-4.262-7.31
	c0.461,0.602,1.029,1.136,1.762,1.56l2.25,5c0,0,6.75,0.75,8.5-1s3-1.5,3-1.5S401,592.25,396.75,600.75z M520.165,422.332l-5.334-1
	l-3.666-0.5c0,0-2-8.333-4.667-10.833l3.5,3.75l-0.25-10.5l-15.25-11.5l-1.25,1l1.79,7.637l2.722,3.353l2.479,1.773
	c-1.655-0.804-3.433-1.346-5.238-1.346c-4.5,0-6.334,1.334-7.167,2.167s-5.5,4.833-6.5,8.5S480.5,422,480.5,422s0.75,2.5,1.75,4
	s1.25,5.5,1.25,5.5l-2,2.25c0,0-2.25-5.75-5.25-8.25s-6-7-6-7s-4-5.25-5.5-6.5s-3.75-1-5.25-1.25s-3.75-1.75-6-1.75
	s-5.5,2.25-6.75,2.25s-3.5,2.5-3.25,4.75s0.75,5.5,0.75,5.5s-3.5,0.5-5,1.75s-1.25-1-1.25-1l-0.25-3c0,0-4-9.5-7.25-12.25
	s-5.5-3-9.75-2.5s-9.25,4.5-10.5,6.25S407,421,407.5,423s-0.75,4.5,0.5,4.5s5,0,5,0l1.751,0.25l0.583,2.25l1.666,1.167l0.334,1.833
	l2.333,0.666c0,0,0.167,3.5,2,3.667s2,1.667,2,1.667l1.833,0.167V442l-3.667,1.166l-2,4.667c0,0,0.167,4.667,0.667,5.167
	s-0.164,5.168-0.164,5.168s-2.5,9.333-3.833,12s-5.833,9.667-5.833,9.667s-1.834,4.834-0.5,5s1.667,1.833,1.667,1.833l-0.167,0.833
	c0,0-0.001,0.5-5.167,0.333s-6.833,0.333-6.833,0.333s-6.667-3-8.667-2.5s-4.167,2.5-4.667,2.5s-3.666-1-3.833-2.5
	s-0.167-7.833-7-7.5s-5.5,3-5.5,3s-4.5-0.667-6.333,0.5s-4.666,4-4.833,5.667s-1.5,2.167-1.5,2.167s-1.167,0.5-1.667,0
	s-3.167-5.333-3.167-5.333s-2-3-5-3.5s-5.667,1.167-6.167,2.667s-1.167,3.333-1.167,3.333s0.333-7-5.167-7.167
	s-7.333,3.333-7.833,7.5s-1,3.5-1,3.5l-2.167-0.167l-6.5-10l-2.167-1c0,0-4.167-1-5.667-1c0,0-1.999-0.167-3.333,1.833
	s-1.667,4.5-1.667,5s0.5,3.333,0.5,3.333l-0.167,1.667l-3.167,0.5c0,0-1.666-5.167-4.833-7.667s-4.167-2-5.167-2s-1,0-1,0
	s-5.833-2.5-8.167-1s-2.167,2-2.167,2s-2.5,3-2.5,6s1.5,4.5,3,7s2.25,3.5,2.25,3.5L285,500l69.75,2.5c0,0,4.25,1.75,7.75,2
	s12.5,2,13.5-1.75l10.5,1.5h4.5c0,0-4,6.75-4.5,10s-1.75,3.5-2.5,4.25s1.5,7,5.75,9s1.25,0.75,1.25,0.75s0.75,2.5,2,3.5
	s2.75,5.25,3,6.25s1.249,2.75,3.499,2.75s-3.5,0-6,6.25s-5.25,15.25-6,19.75c-0.567,3.405-1.558,8.238,0.047,11.582
	c-0.747-1.174-1.339-2.013-1.547-2.082c-0.75-0.25-20.25-0.5-22,0s-15.5,6.5-18.75,7s-11.5,3-11.5,3l-9.75,1.25
	c0,0-17.25,2.25-23.5,1.5c-4.222-0.507-7.979-0.329-9.979-0.16c4.272-6.53,7.979-14.385,7.979-22.006l-3.667-16.334l-3.667-5
	c0,0-0.999-8.666-2.333-8.666s-4.667,0-4.667,0l-23.333,0.666c0,0-13.333,2.333-15,2s-11.667-2-13-2s-2.334-6.332-6-7.666
	s-4.333-5-4.333-5s2.667-0.667,3.667-0.667s2.667-3,3.667-6.667s-0.667-20.334-12.667-24.667c0,0-13.334-2.333-21.667,2
	c0,0-9.334,7.333-9,11.667s-1.333,7.667-2.333,8.667s-3.333,3.667-3.333,3.667l8,5.333l2.333,1.333c0,0,0.334,6.667,3.667,10.667
	s4,6.333,6,6.333s4.667,0.334,4.667,0.334s-7,3.666-8,6.333c-0.133,0.354-0.369,0.779-0.671,1.284L195.75,550l-8.5-21.25
	L100,535.375l0.016-45.391l3.981,0.016l2.672-2.507l2.332-1.251v-4.066l8.992-3.438l0.666-5.317h5.995v5.63l4.664,5.318v5.005
	l19.983,0.313l2.998-5.01l-0.333-13.763h6.328v14.702l0.999,3.438l10.324-0.938l-1-3.44l5.663-1.251c0,0,1.998-4.062,1.998-5.313
	c0-1.251,0-9.383,0-9.383l-4.33-3.759l73.938-1.251l7.994,13.974l2.332-6.319l11.989,0.333h5.995l-3.664-2.328l-4.329-6.98v-3
	l2.998,2.657l5.328-0.333l8.327-0.66l3.664-5.987l-19.65-55.545l1.332-11.641l13.988-4.989l12.66-0.998l-6.994-3.326l11.657-3.326
	l1.998-1.996l5.328,5.987l-0.666,2.994l5.329,0.332l-0.333-4.656l3.33-4.989v-4.989l8.327,5.654l-0.666,4.657l3.997,3.326
	l3.997-7.317l7.991,7.649l2.664,8.647l6.66,1.331l0.333-5.654l8.659,1.33l4.995-0.332l0.999-4.989l6.328-0.666l0.666,3.991
	l5.995-2.994h6.991l4.995,0.333l4.663-2.329l2.331,4.989l6.327,0.666l16.652-2.661l1-6.319l0.667-3.326l-10.325-8.98l-4.33,3.659
	l3.997-7.982l16.32,9.978l10.321,7.317l8.326,3.991l10.657,2.994l0.333,7.317l-4.328,3.991l-2.998,3.326l-11.657,1.331l-2.998,2.657
	l17.651,3.659l2.331,1.33l5.329-4.989l8.659-0.332l2.332-1.992l1.332-2.329v-1.663l-2.997-3.659l0.999-2.994l1.665-1.995
	l-2.332-5.654l-11.657-10.311l-1.665,1.664v-5.987l0.999-1.331l20.315,15.3l2.665,19.292l1.663-0.332l1.332-3.659l2.998-1.33
	l2.664-3.659l-0.169-3.891l-0.164-3.759v-1.996l1.332-0.333l11.989,6.32l2-17.96l1.664-7.65l7.994-7.317l12.985-12.307
	c0,0,3.997-4.324,4.329,0c0.334,4.324-1.331,5.655-1.331,5.655l-0.332,3.991c0,0-1.33-3.659-2.33-3.659s-9.991,10.644-9.991,10.644
	s-5.994,8.315-5.662,9.979c0.334,1.663,0.334,4.989,0.334,4.989h3.664l0.332,4.324l-2.332,2.328l1.332,3.659l3.664,1.331
	l28.977,2.993c0,0,2.33-12.306,2.33-14.634c0-2.328,3.33-5.654,6.994-9.313c3.664-3.658,9.326-10.643,9.326-10.643
	s6.662-5.987,6.993-3.991c0.334,1.996,1.331,3.326,1.331,3.326l2.997,4.324l-1.331,0.665l-3.663-3.658l-9.323,9.645
	c0,0-6.996,5.655-7.328,8.648c-0.334,2.993,0.666,5.321,0.666,5.321s2.998,0,2.998,1.331s0,4.324,0,4.324l-3.33,1.33l1.664,5.322
	l4.33,0.998v3.991l1,5.322l1.998,3.657l21.313,12.641c0,0,6.659,3.661,6.659,11.642c0,7.983,0,7.982,0,7.982l3.846-1.646
	l-0.596,1.193c0,0-6.334,1.833-6.667,4.667s-0.667,9.667-0.667,9.667s-2.833,3.5-4.5,7s-4.667,7.167-4.667,7.167
	s-0.999-9.167-1.833-15.833s-2.166-9.333-3-10.333s-3.001-2.333-2.834-2.833s0.833-4-4.5-8.333s-11-8.499-14.833-9.333
	s-7-1.667-7-1.667s-4-0.666-6,0.5s-3.666,3.333-3.833,3.833s-2.169,2.332-2.169,2.332s-1.834-0.5-4.5-0.667
	S520.165,422.332,520.165,422.332z M500.238,405.513c2.47,1.2,4.665,2.99,6.262,4.487L500.238,405.513z M899.979,589.5l-11.83,4.334
	c0,0-15.332,2.333-16.666,5.333s-5.666,11.333-14,7.333s-16.666-3.666-17-2.666s-27.668,6.334-37.334,8s-27.666,2.332-32.334,2.666
	c-4.666,0.334-29.334-2.666-32.666,2.334c0,0,1.402,3.268-9,5.333c0,0-5.206-0.054-7.629-0.365c-2.42-0.309-7.263,0.205-8.396-0.516
	s-2.009-3.146-3.863-3.091c-1.854,0.052-2.627,0.928-3.813,0.464c-1.187-0.464-5.822-1.547-6.234-2.01
	c-0.411-0.466-1.75-1.55-2.985-1.236c-1.237,0.31,0.103,1.288-1.135,1.34c-1.235,0.052-4.943,0.206-4.943,0.206
	s-3.707-0.928-8.758,0.67c-5.049,1.598-12.364,1.34-14.478,2.01c-2.112,0.67-7.883,1.34-7.883,1.34l-0.257-0.053
	c0,0-4.922,2.449-10.922,5.699S635.25,630.75,632.75,630s-3,0-4.375,1.25s-6.5,1-7.125,0.75s-1.5-2.125-3.875-1s-5.75,2-5.75,2
	s-2.5,1.5-3,2.375s-4.375,1.875-6,2.125s-5.375,3.125-5.75,3.125s-9.375,3.375-11.75,3.5s-4.625,1.25-8.5,0.25
	s-12.875,2.25-18.875,0s-13.625-0.75-15.375-0.875c-1.307-0.094-7.156-0.117-10.025-0.123c-0.016-0.207-0.044-0.416-0.1-0.627
	c-1.25-4.75-1.5-8.5-2.5-11.75s-2-7.5-2-7.5l0.5-1.75l2.75,1l7.5-15.25l0.5-3.75l3.5-10.75l2.25-1l13.5,0.75c0,0,5.5,1.25,7,1.25
	s7-1.25,7-1.25l4.25-4l-0.5-2l0.25-3c0,0,3.75-2,7.5-5s4-14.5,4.75-16.75s-2.5-13.75-2.5-14.75s0.5-9.5,0.25-10.75s-2.75-8-2.5-9
	s6.25-12,6.25-12s4.75,9.75,4.75,12.75s0.25,23.75,0,28.5s-2.5,5.5,0,7.25s7.25,15.25,7.5,17.25s0,4.75,0,4.75s8-1.75,11.25-0.75
	s14,2.5,14,2.5s11,1.5,17.5,2.75s25,3.25,25,3.25l10.75,2.249c0,0,9.5,1.75,11,3.5s7.75,3.25,7.75,3.25s2-66.5,1.5-76
	s-2.75-29.25-5-39s-4.499-21.917-4.499-21.917l-2-12.333l-3.334-17.333l-2-14c0,0-5.667-8.667-13-5s-10.333,4.001-10.333,7.667
	s-0.334,6.333-1.667,6.333c0.502,0,1.333,0,1.333,0l3.001,3.667l0.999,2.667c0,0-1.166,3.167,0.167,3.667s2,1.167,2,1.167
	s1.666,2.333,1.833,2.833s1.501,2.834,2.167,3.167s0.5,1.333,0.5,1.333s-7-2.167-10,0s-1.667,1.167-1.667,1.167
	s-2.5-11.5-6.5-12.667s-7.496-1.333-10.662,0.834s-5,4.667-5,4.667l-1.666,0.5c0,0-1.333-1.167-1.5-1.667
	c-0.093-0.281-0.769-2.2-1.906-4.002c0.423,0.504,0.766,0.95,0.955,1.285c1.331,2.329,3.995,2.329,3.995,2.329
	s2.332-0.665,2.664-2.994c0.334-2.328,0.666-4.657,0.666-4.657l6.327-3.991l-2.995-1.663l-5.662-2.329l-4.329-9.645l0.331-6.32
	h4.664v4.324l4.328,0.665l3.331-0.665l1.664-3.991l0.334-1.331l2.332-0.332l2.996,4.324l12.988,0.665c0,0-8.99-8.979-9.99-9.313
	c-0.998-0.333-3.33-1.663-3.33-1.663l-0.334,3.324l-1.998-1.661l1-4.989l3.33,0.333c0,0,14.317,9.978,15.983,11.641
	s5.661,2.993,5.661,2.993s3.662,0.998,6.328,2.994c2.663,1.996,6.327,1.331,6.327,1.331l-2.332-4.657l-10.322-7.979l-1.332,2.325
	l-0.334-5.65l2.664,0.665l14.654,9.978l0.998,4.989l9.658,2.328l5.662,0.998l-0.332-21.287l-1.334-3.991h3.332v4.324l0.331,21.619
	l1.666,1.996h3.995l1-7.317l1.998-2.994l5.327-2.328l2.998-3.656v-15.642l-3.996-0.665l-0.331-8.98l8.322-0.666l2.332-2.993l1-3.326
	l2.332,4.323l-0.334,3.326h1.997l-0.334,8.315l-8.991,0.333l0.334,10.979l6.994-5.987l13.653-9.645l-0.998-38.582l-22.646,2.661
	l-0.332-1.996l22.646-3.326l1.332-5.654l-0.665-13.302l-0.332-13.637l2.33,3.326l2.332,28.271l25.979-2.328v2.328l-25.979,3.326
	l0.666,54.547l12.654-8.98l1.666,1.331l-13.32,13.304l0.666,4.324l3.995,2.328l2.663-1.663l3.664,3.326l2.998-1.663l4.33-7.317
	l13.32-10.311l1.329,2.994l-11.986,9.645l-0.334,1.996l11.657,0.333v-5.987l3.995,0.332l1,2.661l3.662-1.331l6.992-6.98l0.666,4.654
	l4.664,6.65l2.998,0.998v3.326l5.66,0.998l-2.664,8.979h-4.33l-1.332,2.993l-4.996,1.664l-3.328-1.331l-4.662,0.333l3.33,5.987
	h7.659c0,0,2.332-5.655,6.328-3.327c3.996,2.329,5.33,3.659,5.33,3.659l7.325-0.332l-0.332,7.979l1.664,8.314
	c0,0,7.99-0.998,10.988,2.994c0.53,0.706,0.94,1.43,1.266,2.147c-1.292-1.708-3.545-4.24-5.797-4.24
	c-2.547,0-6.715,0.229-7.411,0.229s-3.937,4.169-3.937,4.864s-1.621,5.095-1.621,5.095s-3.939-1.621-6.948,0.463
	s-6.021,3.476-6.021,3.476l-4.862-3.013c0,0-3.475-4.398-5.56-4.398s-0.693-1.854-0.693-1.854s-3.475-9.727-8.569-9.727
	s-8.337,0.231-9.264,3.474c-0.929,3.242-0.929,3.242-0.929,3.242l-3.937,2.084h-1.158c0,0-1.387-1.621-4.863-1.621
	c-3.475,0-3.475,0-3.475,0l-1.39-6.021c0,0-2.084-12.74-7.874-12.972c-5.79-0.229-8.058-1.191-10.653,1.392
	c-5.834,5.803-0.834-2.364-7.411-3.938c0,0,0.243-1.259-1.423-1.426s-2.666-1.334-6.166-1.167s-4.834,1.667-4.834,1.667L723,436
	l-1.167,2.167L721,440l0.5,2.334l1.667,4.833l0.666,3.833l48.667,8.666l7.5,2.167l2.835,2.169c0,0,0.668,2.333,1.334,2.5
	s1.832,0.167,2.166-0.833s3-1.667,3-1.667l8,2.333l16.333,3.833l8.834,0.5l7.333,1.167l18.896,4.251c0,0,15.979,3.474,18.296,3.706
	c2.314,0.232,18.526,3.243,18.526,3.243l11.117,2.314c0,0-4.633-14.59-9.728-24.316c-1.046-2-2.081-3.821-3.084-5.479
	c0.974,1.397,1.927,2.813,2.798,4.181c4.661,7.314,7.993,17.628,7.993,17.628l3.33,7.313l1.998,0.665V589.5z"/>
<path id="Soldiers" onclick="notify(this, &quot;select&quot;);" opacity="0.4" fill="#273F0E" d="M660.834,424.833
	c0-3.667,3-4,10.333-7.667s13,5,13,5l2,14l0.495,2.574l-2.495-0.907c0,0-8.667-0.333-11.334-0.334c-1.991,0-7.321-2.227-9.897-3.358
	l-2.436-2.975c0,0-0.831,0-1.333,0C660.5,431.166,660.834,428.5,660.834,424.833z M663.167,435.833L661.5,433.5
	c0,0,0.56,0.258,1.436,0.642l0.565,0.691l0.999,2.667c0,0-1.166,3.166,0.167,3.666s2,1.167,2,1.167s1.666,2.334,1.833,2.832
	c0.124,0.373,0.897,1.76,1.557,2.583c-0.735-0.285-1.346-0.6-1.557-0.916c-0.667-1-2-4.333-2-4.333l-2.667-1.333v-3.333
	L663.167,435.833z M285.5,603.5l1.665,3.668c6.667,7.667,1.667,14.333,1.667,14.333l4.667,13.667l-1.333,6.333l-6,11l8.333,45
	l-5,2.667c0,0-4.333,0.333-5.333,0.333s0.333,1.334,0.333,1.334l1,6.333c-12.667,2.333-3.667,0.333-3.667,0.333
	s-8-1.666-9.667-1.666s-5-3.334-5-3.334l-4,2c0,0-6.666-6.333-9.333-9.333s-12-13.667-12-13.667l-4.833,6.75c0,0-4.75,4.75-5,5.5
	s-1.5-1.25-2.75-1.25s-4.5-1.75-4.5-1.75h-7l-6.5-0.5c0,0-4.75,3.25-5.25,4.25s-2.25-2.75-3.5-2.75s-2.75,1-2.75,1s-2.25-2.75-3-3.5
	s0.75-3.5,1.5-4.5s5-23.75,5.25-24.75s0.75-19.5,0.5-25.5s1.25-19.75,1.25-19.75l-2,4.25c0,0-2,2.25-7.25,8.25s-10,7.5-10,7.5
	s-1,0-3-1s-9.5-2.5-10.25-2.5s1.5-9,1.5-9l5.25-12.25l3-5.5l1-3c0,0,0.999-3.333,3.333-5s4.667-21.333,4.667-21.333
	c-1.667-18,5-24.333,6-27c0.65-1.735,3.83-3.886,5.98-5.182c0.591,0.612,1.162,1.552,1.415,2.229
	c0.407,1.087,2.717,5.57,3.532,6.384c0.815,0.815,1.766-1.63,2.309-3.124c0.543-1.492,6.927-4.48,9.644-8.283
	c2.717-3.805,2.988-3.262,2.988-3.262s-1.358-3.529-1.358-4.073c0-0.385,1.208-3.986,1.925-6.092
	c-1.156-1.431-1.434-2.931-1.434-2.931s0.063-0.016,0.163-0.04l-2.556-2.076c0,0-4.482-3.804-7.877-3.804s-13.31,0.137-15.755,0.137
	c-2.445,0-6.112,2.716-6.112,2.716l-0.136,0.541c0,0,0.364,2.192,0.403,2.886l0.537,0.307c0,0,0.334,6.667,3.666,10.666
	c0.183,0.219,0.354,0.431,0.521,0.64c-2.963-3.105-4.313-5.402-4.584-7.298c-0.272-1.899-0.136-3.668-0.136-4.211
	c0-0.029-0.002-0.064-0.004-0.104l-1.796-1.026l-8-5.333c0,0,2.333-2.667,3.333-3.667s2.666-4.333,2.333-8.667s9-11.667,9-11.667
	c8.334-4.333,21.667-2,21.667-2c12,4.334,13.667,21.001,12.667,24.667s-2.667,6.667-3.667,6.667c-0.854,0-2.917,0.485-3.504,0.627
	l1.791,1.455c0,0-0.218,0.628-0.52,1.516c0.651,0.805,1.578,1.589,2.899,2.069c3.667,1.334,4.667,7.666,6,7.666s11.333,1.667,13,2
	s15-2,15-2l23.333-0.666c0,0,3.334,0,4.667,0s2.333,8.666,2.333,8.666l3.667,5l3.667,16.334c0,18-20.666,37.333-20.667,37.333
	L285.5,603.5z M195.354,536.807c0.012,0.012,0.022,0.023,0.033,0.036c1.006,1.052,1.714,2.084,2.218,2.996
	C197.011,539.004,196.299,537.989,195.354,536.807z M197.606,539.839c1.222,1.715,1.957,2.661,3.228,2.661
	c2,0,4.667,0.334,4.667,0.334s-0.864,0.454-2.02,1.151c-0.357-0.371-0.722-0.623-1.03-0.623c-0.815,0-3.667-0.407-3.667-0.407
	S198.599,541.637,197.606,539.839z M699.5,602.75c0,0-6.25-1.5-7.75-3.25s-11-3.5-11-3.5L670,593.75c0,0-18.5-2-25-3.25
	s-17.5-2.75-17.5-2.75s-10.75-1.5-14-2.5S602.25,586,602.25,586s0.25-2.75,0-4.75s-5-15.5-7.5-17.25s-0.25-2.5,0-7.25s0-25.5,0-28.5
	S590,515.5,590,515.5s-6,11-6.25,12s2.25,7.75,2.5,9s-0.25,9.75-0.25,10.75s3.25,12.5,2.5,14.75s-1,13.75-4.75,16.75s-7.5,5-7.5,5
	l-0.25,3l0.5,2l-4.25,4c0,0-5.5,1.25-7,1.25s-7-1.25-7-1.25l-13.5-0.75l-2.25,1l-3.5,10.75l-0.5,3.75l-7.5,15.25l-2.75-1l-0.5,1.75
	c0,0,1,4.25,2,7.5s1.25,7,2.5,11.75s-8,8.5-8,8.5s0.25,8.25,0.25,9.25s1,15.75,1,15.75s-1.5,2.75-2.75,4s0,1.25-2,5.5
	s-23-0.25-23-0.25l-1.5-5.25c0,0,0.75-7.5,0-12.75S495,658,495,658h-1.25c0,0,0,6-0.25,6.75s1,12.25,0.25,12.5s-6,2.75-12.75,0.5
	s-11.75-6-11.5-6.75s0.25-11,0.25-11c-2.75-2.25-3-10-3-10s-2.5-0.75-3.5-0.75s-1.75-9.75-1.75-9.75L460,635c0,0-1.5,11-2,14
	s-2.75,6.5-5.75,8.75s-7.25,2.5-8.75,2.25s-3.5,0.5-4.25,2s-5,3.25-5,3.25v-3c0,0,0-6.5-0.75-9.75s-0.75-9.5-0.75-9.5
	s-4.25,5-4.25,6.25s-3.25,4.5-3.5,5.5s-0.25,3.25-0.25,3.25s1.5,2,3,2.75s5.5,3.75,5.5,3.75s-5.75,4.75-7.75,6.5s-9,4.25-12.25,4.5
	s-10.5,0-12.5,0s2-3.5,0.5-3.75s-5.5-5.25-5.75-8S398,657,398,657s2.749-10.749,3.999-16.749s7.5-22.75,7.5-22.75s-10.75-3.5-14-4
	s-3-4.25,1.25-12.75s7-17.25,7-17.25s-1.25-0.25-3,1.5s-8.5,1-8.5,1l-2.25-5c-4.75-2.75-3.25-9.75-2.5-14.25s3.5-13.5,6-19.75
	s8.25-6.25,6-6.25c-1.21,0-2.049-0.51-2.613-1.133c1.425,1.257,5.496,0.078,5.496,0.078l2.581,4.479l2.445,4.618
	c0,0,1.494-2.037,2.173-3.531s3.803-4.347,3.803-5.84s0.407-10.051,0.407-10.051s2.038-4.075,2.309-5.298
	c0.272-1.224-3.938-3.396-3.938-3.396s-6.79-2.714-11.544-4.479c-4.754-1.768-9.508,1.899-9.508,1.899l-0.951,2.718
	c0,0,0.271,4.075,0.271,5.434c0,0.475,0.12,1.084,0.294,1.714c2.734,1.311,0.276,0.287,0.276,0.287s0.75,2.5,2,3.5
	s2.75,5.25,2.998,6.252c0.116,0.462,0.402,1.081,0.887,1.617c-0.021-0.022-0.051-0.038-0.071-0.06
	c-1.358-1.358-1.901-3.804-1.901-3.804s-2.445-3.802-2.988-4.753c-0.352-0.619-0.875-1.868-1.2-3.04
	c-0.274-0.133-0.585-0.28-0.974-0.463c-4.25-2-6.5-8.25-5.75-9s2-1,2.5-4.25s4.5-10,4.5-10h-4.5l-10.5-1.5c-1,3.75-10,2-13.5,1.75
	s-7.75-2-7.75-2L285,500l-1.751-1.5c0,0-0.75-1-2.25-3.5s-3-4-3-7s2.5-6,2.5-6s-0.166-0.5,2.167-2s8.167,1,8.167,1s0,0,1,0
	s2.001-0.5,5.167,2s4.833,7.667,4.833,7.667l3.167-0.5l0.166-1.668c0,0-0.5-2.833-0.5-3.333s0.334-3,1.667-5
	s3.333-1.833,3.333-1.833c1.5,0,5.667,1,5.667,1l2.167,1l6.5,10l2.165,0.168c0,0,0.5,0.667,1-3.5s2.333-7.667,7.833-7.5
	s5.167,7.167,5.167,7.167s0.667-1.833,1.167-3.333s3.167-3.167,6.167-2.667s5,3.5,5,3.5s2.667,4.833,3.167,5.333s1.667,0,1.667,0
	s1.334-0.5,1.5-2.167s3-4.5,4.833-5.667s6.333-0.5,6.333-0.5s-1.333-2.667,5.5-3s6.834,6,7,7.5s3.333,2.5,3.833,2.5
	s2.667-2,4.667-2.5s8.667,2.5,8.667,2.5s1.666-0.5,6.833-0.333s5.167-0.333,5.167-0.333l0.167-0.833c0,0-0.334-1.666-1.667-1.833
	s0.5-5,0.5-5s4.5-7,5.833-9.667s3.833-12,3.833-12s0.667-4.667,0.167-5.167s-0.667-5.167-0.667-5.167l2-4.667l3.667-1.167v-2.832
	l-1.833-0.167c0,0-0.167-1.5-2-1.667c-1.101-0.1-1.599-1.406-1.823-2.429c-0.375-0.235-0.656-0.408-0.753-0.472
	c-0.23-0.153-0.98-0.825-1.591-1.386L417.334,433l-0.023-0.124c0.06,0.054,0.125,0.114,0.188,0.171l2.168,0.621
	c0,0,0.03,0.556,0.177,1.237c1.21,0.756,3.416,2.167,3.729,2.789c0.405,0.813,3.529,0.271,3.938,0
	c0.409-0.271,2.446-4.618,2.854-5.161c0.405-0.543,1.899-2.854,1.899-2.854l-0.271-5.161c0,0-2.987,0-3.531,0
	s-4.89,0.406-7.878,0.815s-6.383,1.766-6.383,1.766s-0.026,0.25-0.032,0.569l0.582,0.082l0.544,2.1
	c-0.603-0.542-0.741-0.55-0.959-0.984c-0.149-0.3-0.174-0.804-0.167-1.197L413,427.5c0,0-3.75,0-5,0s0-2.5-0.5-4.5
	s1.5-10.5,2.75-12.25s6.25-5.75,10.5-6.25s6.5-0.25,9.75,2.5s7.25,12.25,7.25,12.25l0.25,3c0,0-0.25,2.25,1.25,1s5-1.75,5-1.75
	s-0.5-3.25-0.75-5.5s2-4.75,3.25-4.75s4.5-2.25,6.75-2.25s4.5,1.5,6,1.75s3.75,0,5.25,1.25s5.5,6.5,5.5,6.5s3,4.5,6,7
	s5.25,8.25,5.25,8.25l2-2.25c0,0-0.25-4-1.25-5.5s-1.75-4-1.75-4s-0.167-3.498,0.833-7.165s5.666-7.667,6.5-8.5
	s2.667-2.167,7.167-2.167s8.833,3.333,11.5,5.833s4.667,10.833,4.667,10.833l3.666,0.5l5.334,1c0,0,4,1.333,6.666,1.5
	s4.5,0.667,4.5,0.667s2-1.833,2.167-2.333s1.833-2.666,3.833-3.833s6-0.5,6-0.5s3.167,0.834,7,1.667s9.5,5,14.833,9.333
	s4.667,7.833,4.5,8.333s2,1.833,2.834,2.833s2.166,3.667,3,10.333s1.833,15.833,1.833,15.833s3-3.667,4.667-7.167s4.5-7,4.5-7
	s0.334-6.832,0.667-9.666s6.667-4.667,6.667-4.667l0.833-1.667c0,0,1.333-1.5,1.667-4s2.5-8.333,2.5-8.333
	c5-7.667,14.499-6,14.499-6c11.166,2.333,10,17.833,10,17.833s2.334-1.167,5.5-0.167S634,442,634.167,442.5s1.5,1.667,1.5,1.667
	l1.666-0.5c0,0,1.834-2.5,5-4.667S649,437,653,438.167s6.5,12.667,6.5,12.667s-1.333,1,1.667-1.167s10,0,10,0s0.166-1-0.5-1.333
	c-0.17-0.085-0.382-0.302-0.61-0.584c1.593,0.616,3.776,1.084,3.776,1.084h6.334l6-5l0.958-2.685l-0.463-2.408l1.171,0.426
	l-0.708,1.982l2.376,12.351l2,12.333c0,0,2.249,12.167,4.499,21.917s4.5,29.5,5,39S699.5,602.75,699.5,602.75z M415.83,430.358
	c-0.015-0.017-0.026-0.024-0.04-0.039l1.21,0.848l0.313,1.707c-0.382-0.347-0.669-0.616-0.669-0.616S416.917,431.444,415.83,430.358
	z M415.334,430l-0.039-0.151c0.14,0.125,0.3,0.275,0.496,0.471L415.334,430z M760.5,458.5l-11.333-2.333l-0.232-0.696l12.193,2.171
	C760.74,458.117,760.5,458.5,760.5,458.5z M885.553,483.033c0,0-16.211-3.011-18.526-3.243c-2.318-0.232-18.298-3.706-18.298-3.706
	l-18.896-4.251l-7.333-1.167l-8.834-0.5l-16.333-3.833l-4.957-1.446c0.123,0.276,0.124,0.279,0.124,0.279l-3.646-1.028
	c0.286-0.089,0.479-0.138,0.479-0.138l3.043,0.887c-0.149-0.335-0.478-1.074-1.209-2.721c-1.333-3-11.334-2.333-11.334-2.333
	L779.5,461.5l9.354,2.637c-0.783,0.243-2.275,0.796-2.521,1.528c-0.334,1-1.5,1-2.166,0.833s-1.334-2.5-1.334-2.5L780,461.831
	l-7.5-2.167l-11.372-2.025c0.636-0.779,1.67-1.808,2.705-1.808c1.666,0-2.666-3.667-5-4.333s-9.333,1.667-10.666,1.667l0.768,2.304
	l-25.102-4.47l-0.666-3.833l-1.667-4.833L721,440l0.833-1.833L723,436l2.828-1.838c0,0,1.334-1.501,4.834-1.667s4.5,1,6.166,1.167
	s1.423,1.426,1.423,1.426c6.577,1.575,1.577,9.742,7.411,3.938c2.594-2.583,4.863-1.622,10.653-1.392
	c5.79,0.233,7.874,12.972,7.874,12.972l1.39,6.021c0,0,0.001,0,3.475,0c3.475,0,4.863,1.621,4.863,1.621h1.158l3.937-2.084
	c0,0,0,0,0.929-3.242c0.927-3.243,4.171-3.474,9.264-3.474s8.569,9.727,8.569,9.727s-1.392,1.854,0.693,1.854s5.56,4.398,5.56,4.398
	l4.862,3.013c0,0,3.012-1.391,6.021-3.476s6.947-0.463,6.947-0.463s1.621-4.401,1.621-5.095c0-0.695,3.243-4.864,3.938-4.864
	s4.864-0.23,7.411-0.23s5.096,3.24,6.254,4.862s0.924,6.486,0.694,7.645c-0.06,0.286-0.2,0.558-0.384,0.806
	c-0.292-0.574-1.297-2.299-3.229-3.127c-2.333-1-10.667,1.333-10.667,1.333h-2l1.333,4l3.667,2l4.667-0.333l3.333-1l1.63-1.449
	c0.916,0.663,4.661,3.413,4.661,4.023c0,0.694,1.854-0.461,2.548-6.021c0.694-5.559,4.169-5.79,4.169-5.79s-0.461-2.548-0.229-5.79
	c0.229-3.242,4.398-4.398,4.398-4.398l-1.621-0.928l-0.693-2.314c0,0,0-3.242-0.694-4.4c-0.694-1.157,0-3.011,0-3.011l-1.621-0.231
	l1.389-1.62c0,0-2.084-0.233,0-3.013c2.084-2.777,7.414-3.241,9.729-3.241c2.314,0,6.253,6.021,6.253,6.021l2.779,3.938
	c0,0,2.085,1.389,3.938,2.314c1.854,0.925,6.717,6.716,11.813,16.444c5.094,9.727,9.727,24.317,9.727,24.316L885.553,483.033z
	 M841.5,467.834l-1.37,1.218c-0.128-0.093-0.202-0.146-0.202-0.146s0.918-0.525,1.471-1.278
	C841.459,467.747,841.5,467.834,841.5,467.834z"/>
<path id="Face" onclick="notify(this, &quot;select&quot;);" opacity="0.5" fill="#C1978B" enable-background="new    " d="
	M223.367,537.93c0,0-0.271-0.543-2.988,3.262c-2.717,3.803-9.101,6.791-9.644,8.283c-0.543,1.494-1.494,3.939-2.309,3.124
	c-0.815-0.813-3.125-5.297-3.532-6.384c-0.407-1.087-1.63-2.853-2.445-2.853c-0.815,0-3.667-0.407-3.667-0.407
	s-0.407-2.988-3.396-6.112c-2.989-3.124-4.347-5.433-4.618-7.334c-0.271-1.899-0.136-3.668-0.136-4.211s-0.407-2.987-0.407-2.987
	l0.136-0.544c0,0,3.667-2.716,6.112-2.716c2.445,0,12.36-0.137,15.755-0.137s7.877,3.804,7.877,3.804l4.347,3.531
	c0,0-2.445,7.062-2.445,7.604C222.007,534.395,223.367,537.93,223.367,537.93z M290.6,492.565c-0.136,0.679-1.766,2.443-1.766,2.443
	s-1.358,1.901-2.037,1.63c-0.679-0.271-2.445-1.63-3.124-2.581c-0.679-0.949-0.543-1.086-0.951-1.63
	c-0.408-0.544-0.543-2.986-0.543-2.986s7.471-0.137,8.014,0.271S290.736,491.886,290.6,492.565z M318.307,492.429
	c-0.543,0.407-2.309,2.854-2.716,2.988s-3.531,1.766-4.21,1.63s-2.037,0-2.852-1.086c-0.815-1.086-2.173-2.309-2.311-3.26
	c-0.136-0.951,0.271-3.531,0.271-3.531s4.754-1.222,7.878-1.086s4.074,1.901,4.074,1.901S318.85,492.022,318.307,492.429z
	 M337.188,495.281l-2.037,1.356l-4.074-2.038c0,0-0.951-1.087-1.087-1.63c-0.138-0.543,0.271-1.629,0.271-1.629l0.543-1.766
	l4.618,0.136l2.445-0.271l0.271,2.853L337.188,495.281z M351.991,492.021c-0.408,0.543-1.902,2.986-2.717,3.122
	c-0.815,0.138-3.667-0.136-4.21-0.679s-1.632-2.581-1.632-2.581l-0.136-2.309c0,0,4.618-0.679,5.025-0.679
	c0.406,0,3.938-0.272,3.938-0.272S352.399,491.478,351.991,492.021z M381.738,491.071c-0.138,0.679-1.087,3.26-3.805,2.853
	c-2.716-0.407-2.852-2.581-3.667-3.124c-0.813-0.543-1.492-2.986-1.492-2.986l0.271-0.545l8.964-0.543
	C382.009,486.725,381.873,490.392,381.738,491.071z M416.1,524.075c-0.271,1.223-2.309,5.298-2.309,5.298s-0.407,8.558-0.407,10.051
	s-3.124,4.346-3.803,5.84s-2.173,3.531-2.173,3.531l-2.445-4.618l-2.581-4.479c0,0-4.21,1.223-5.569-0.136
	c-1.357-1.359-1.899-3.806-1.899-3.806s-2.445-3.802-2.988-4.753s-1.494-3.396-1.494-4.754s-0.271-5.434-0.271-5.434l0.951-2.718
	c0,0,4.754-3.667,9.508-1.899c4.754,1.766,11.544,4.479,11.544,4.479S416.372,522.854,416.1,524.075z M430.363,432.531
	c-0.407,0.543-2.444,4.89-2.854,5.161c-0.407,0.271-3.532,0.813-3.938,0c-0.407-0.815-4.074-2.988-4.482-3.262
	c-0.408-0.271-2.445-2.173-2.445-2.173s0.272-0.813-0.813-1.899s-1.223-0.951-1.494-1.494c-0.271-0.543-0.136-1.768-0.136-1.768
	s3.395-1.356,6.383-1.766s7.334-0.815,7.878-0.815s3.531,0,3.531,0l0.271,5.161C432.264,429.679,430.77,431.988,430.363,432.531z
	 M485.099,515.111c0,0,0.407,1.766,0.815,2.174s0.813,3.396,0.813,3.396s0,0,0.271,0.814c0.271,0.813-0.815,5.568-1.222,6.655
	c-0.407,1.087-5.297,4.89-6.791,5.841s-2.445,6.111-3.667,5.433c-1.224-0.678-3.805-5.705-4.482-6.653
	c-0.679-0.95-2.988-7.88-2.988-7.88l-0.136-5.433c0,0-3.124-3.667-3.667-5.025c-0.543-1.356-1.9-7.196-1.766-7.74
	s1.899-4.618,1.899-4.618s1.494-0.814,2.037-1.086c0.543-0.272,5.705,0.136,7.878,0.271c2.175,0.136,9.236,0,9.915,0
	c0.681,0,2.445,2.444,3.124,3.531c0.681,1.087,0.408,4.754,1.494,6.655C489.716,513.345,485.099,515.111,485.099,515.111z
	 M508.596,433.889c-0.543,1.087-4.481,6.112-5.705,6.386c-1.222,0.271-4.072,0.949-4.753,0.543c-0.679-0.408-2.038-2.175-3.26-2.988
	c-1.222-0.815-2.988-1.63-2.988-1.63l0.271-2.173c0,0,3.667-2.038,9.915-6.655s8.285-6.112,8.285-6.112s-1.358,2.038-1.087,2.988
	c0.271,0.95,1.492,3.803,1.492,4.618C510.768,429.679,509.139,432.802,508.596,433.889z M619.167,443.833l-5,6.667
	c0,0-2,3.667-5.667,3s-6.333-5.333-6.333-5.333l-0.667-5l-1.333-3l1-3.667c0,0,4.666-1,7.333-1s7.666,0.333,9.333,1.667
	S619.167,443.833,619.167,443.833z M657,460.5c0,0-2.5,3.5-5,1.5s-9-8.5-9-8.5l14,0.5V460.5z M686.167,443.833l-6,5h-6.334
	c0,0-4.666-1-5.333-2s-2-4.333-2-4.333l-2.667-1.333v-3.333l-0.666-2L661.5,433.5c0,0,8.666,4,11.333,4s11.334,0.333,11.334,0.333
	l3.666,1.333L686.167,443.833z M730,451.5l-3-3.5c0,0,12-6.5,13-2.5s1,7,1,7L730,451.5z M763.833,455.833
	c-1.666,0-3.333,2.667-3.333,2.667l-11.333-2.333l-1-3c1.333,0,8.332-2.333,10.666-1.667S765.499,455.833,763.833,455.833z
	 M779.5,461.5l0.333-1.667c0,0,10.001-0.667,11.334,2.333s1.333,3,1.333,3L779.5,461.5z M838.5,470.5l-3.333,1l-4.667,0.333
	l-3.667-2l-1.333-4h2c0,0,8.334-2.333,10.667-1.333s3.333,3.333,3.333,3.333L838.5,470.5z M863.167,477.5
	c0,0-2.334,1.333-3.334,0.667s-6.666-1.333-8.333-2s-3.667-3.333-3.667-3.333l3.334-0.667l8.666-1c0,0,3.667,1,3.667,2.333
	S863.167,477.5,863.167,477.5z M866.5,445.833l-6.667,2.667l-4,1.333L853.5,444.5c0,0,0-4,6.333-4c4.334,0,6.667-3.333,6.667-3.333
	l0.667,4L866.5,445.833z"/>
<path id="Sea" onclick="notify(this, &quot;select&quot;);" opacity="0.5" fill="#326014" enable-background="new    " d="
	M888.166,593.834c0,0-15.332,2.333-16.666,5.333s-5.666,11.333-14,7.333s-16.666-3.666-17-2.666s-27.668,6.334-37.334,8
	s-27.666,2.332-32.333,2.666s-29.334-2.666-32.667,2.334c0,0,1.404,3.268-9,5.333c0,0-5.207-0.054-7.627-0.365
	c-2.419-0.31-7.262,0.205-8.396-0.516c-1.134-0.721-2.009-3.146-3.861-3.091c-1.855,0.052-2.627,0.928-3.813,0.464
	c-1.185-0.464-5.821-1.547-6.231-2.01c-0.412-0.467-1.749-1.549-2.987-1.236c-1.237,0.31,0.102,1.288-1.134,1.34
	c-1.236,0.052-4.944,0.206-4.944,0.206s-3.707-0.928-8.757,0.67c-5.049,1.598-12.365,1.34-14.479,2.01
	c-2.11,0.67-7.883,1.34-7.883,1.34l-0.257-0.053c0,0-4.92,2.449-10.92,5.699S635.25,630.75,632.75,630s-3,0-4.375,1.25
	s-6.5,1-7.125,0.75s-1.5-2.125-3.875-1s-5.75,2-5.75,2s-2.5,1.5-3,2.375s-4.375,1.875-6,2.125s-5.375,3.125-5.75,3.125
	s-9.375,3.375-11.75,3.5s-4.625,1.25-8.5,0.25s-12.875,2.25-18.875,0s-13.625-0.75-15.375-0.875
	c-1.309-0.094-7.156-0.117-10.025-0.123c0.341,4.448-8.1,7.873-8.1,7.873s0.25,8.25,0.25,9.25s1,15.75,1,15.75s-1.5,2.75-2.75,4
	s0,1.25-2,5.5s-23-0.25-23-0.25l-1.5-5.25c0,0,0.75-7.5,0-12.75S495,658,495,658h-1.25c0,0,0,6-0.25,6.75s1,12.25,0.25,12.5
	s-6,2.75-12.75,0.5s-11.75-6-11.5-6.75s0.25-11,0.25-11c-2.75-2.25-3-10-3-10s-2.5-0.75-3.5-0.75s-1.75-9.75-1.75-9.75L460,635
	c0,0-1.5,11-2,14s-2.75,6.5-5.75,8.75s-7.25,2.5-8.75,2.25s-3.5,0.5-4.25,2s-5,3.25-5,3.25v-3c0,0,0-6.5-0.75-9.75
	s-0.75-9.5-0.75-9.5s-4.25,5-4.25,6.25s-3.25,4.5-3.5,5.5s-0.25,3.25-0.25,3.25s1.5,2,3,2.75s5.5,3.75,5.5,3.75s-5.75,4.75-7.75,6.5
	s-9,4.25-12.25,4.5s-10.5,0-12.5,0s2-3.5,0.5-3.75s-5.5-5.25-5.75-8S398,657,398,657s2.75-10.75,4-16.75s7.5-22.75,7.5-22.75
	s-10.75-3.5-14-4c-2.979-0.458-3.007-3.66,0.281-10.736l-0.031-0.014l-20.25-1.25v-9.25l17-5.5c0,0-2.367-4.219-4.262-7.31
	c-0.268-0.35-0.501-0.717-0.691-1.108c-0.747-1.174-1.339-2.013-1.547-2.082c-0.75-0.25-20.25-0.5-22,0s-15.5,6.5-18.75,7
	s-11.5,3-11.5,3L324,587.5c0,0-17.25,2.25-23.5,1.5c-4.222-0.507-7.979-0.329-9.979-0.16c-5.819,8.896-12.688,15.327-12.688,15.327
	l7.667-0.667l1.667,3.667c6.667,7.667,1.667,14.333,1.667,14.333l4.667,13.667l-1.333,6.333l-6,11l8.333,45l-5,2.667
	c0,0-4.333,0.333-5.333,0.333s0.333,1.334,0.333,1.334l1,6.333c-12.667,2.333-3.667,0.333-3.667,0.333s-8-1.666-9.667-1.666
	s-5-3.334-5-3.334l-4,2c0,0-6.667-6.333-9.333-9.333s-12-13.667-12-13.667L237,689.25c0,0-4.75,4.75-5,5.5s-1.5-1.25-2.75-1.25
	s-4.5-1.75-4.5-1.75h-7l-6.5-0.5c0,0-4.75,3.25-5.25,4.25s-2.25-2.75-3.5-2.75s-2.75,1-2.75,1s-2.25-2.75-3-3.5s0.75-3.5,1.5-4.5
	s5-23.75,5.25-24.75s0.75-19.5,0.5-25.5s1.25-19.75,1.25-19.75l-2,4.25c0,0-2,2.25-7.25,8.25s-10,7.5-10,7.5s-1,0-3-1
	s-9.5-2.5-10.25-2.5s1.5-9,1.5-9L179.5,611l3-5.5l1-3c0,0,1-3.333,3.333-5s4.667-21.333,4.667-21.333
	c-1.444-15.6,3.368-22.434,5.329-25.716L195.75,550l-8.5-21.25L100,535.375l0.017,277.674l799.92-0.111l0.061-223.438
	L888.166,593.834z"/>
<path id="Sky" onclick="notify(this, &quot;select&quot;);" opacity="0.5" fill="#536887" enable-background="new    " d="
	M509.07,411.905l-1.047,1.047c0,0-5.863-9.423-10.263-9.214c-4.396,0.209-2.722-2.725-2.722-3.353s-1.047-5.654-1.047-5.654
	l0.628-3.769l12.772,9.842l2.515,4.397L509.07,411.905z M534.617,403.947v5.024l-8.586-4.814l-7.329-4.188l-3.979-5.026l1.047-5.445
	h7.748h6.91v6.282v2.723l2.409-2.409h1.779L534.617,403.947L534.617,403.947z M580.268,432.427c0,0-3.559,3.143-3.769,5.444
	s-0.209,6.283-1.466,5.235c-1.257-1.05-2.935-4.188-2.935-4.188s-0.418-7.33-0.418-8.376s-1.885-8.586-1.885-8.586
	s-1.048-2.931-3.142-3.56c-2.096-0.631-6.072-1.468-6.072-1.468l-0.838-1.047l-0.209-6.073c0.628,0,14.238,7.12,14.238,7.12
	l10.681,9.214l1.257,7.329C583.618,433.893,580.268,432.427,580.268,432.427z M899.979,485.34l-1.997-0.665l-3.33-7.313
	c0,0-3.332-10.313-7.993-17.628c-4.662-7.32-11.657-15.97-11.657-15.97l-7.991-7.313c0,0,3.33-0.997-3.664-4.656
	c-6.994-3.658-10.322,4.324-10.322,4.324v6.648c0,0,2.998,7.316,1.332,7.649c-1.666,0.332-1.666,9.313-1.666,9.313
	s0.666,1.327-2.332,1.992c-2.996,0.664-3.662,11.313-3.662,11.313l-4.33-2.661l-0.666-5.321c0,0,0.666-4.651-2.332-8.646
	s-10.988-2.994-10.988-2.994l-1.664-8.314l0.332-7.979l-7.325,0.332c0,0-1.334-1.33-5.33-3.659
	c-3.995-2.328-6.327,3.327-6.327,3.327h-7.659l-3.33-5.987l4.662-0.333l3.33,1.331l4.994-1.664l1.332-2.993h4.33l2.664-8.979
	l-5.66-0.998v-3.326l-2.997-0.998l-4.663-6.651l-0.666-4.653l-6.994,6.98l-3.662,1.331l-1-2.661l-3.995-0.332v5.987l-11.657-0.333
	l0.334-1.996l11.986-9.645l-1.329-2.994l-13.32,10.311l-4.33,7.317l-2.998,1.663l-3.662-3.326l-2.664,1.663l-3.996-2.328
	l-0.666-4.324l13.32-13.304l-1.666-1.331l-12.654,8.98l-0.666-54.547l25.979-3.326v-2.328l-25.979,2.328l-2.332-28.271l-2.33-3.326
	l0.332,13.637l0.666,13.304l-1.332,5.654l-22.646,3.326l0.332,1.996l22.646-2.661l0.998,38.582l-13.653,9.645l-6.994,5.987
	l-0.334-10.979l8.991-0.333l0.334-8.315h-1.997l0.334-3.326l-2.332-4.323l-1,3.326l-2.332,2.993l-8.322,0.666l0.331,8.98
	l3.996,0.665v15.64l-2.998,3.658l-5.327,2.328l-1.998,2.994l-1,7.317h-3.995l-1.666-1.996l-0.331-21.619v-4.324h-3.332l1.334,3.991
	l0.332,21.287l-5.662-0.998l-9.658-2.328l-0.998-4.989l-14.654-9.978l-2.664-0.665l0.334,5.65l1.332-2.326l10.322,7.98l2.332,4.657
	c0,0-3.664,0.665-6.327-1.331c-2.666-1.996-6.328-2.994-6.328-2.994s-3.995-1.33-5.661-2.993s-15.983-11.641-15.983-11.641
	l-3.33-0.333l-1,4.989l1.998,1.66l0.334-3.323c0,0,2.332,1.33,3.33,1.663c1,0.334,9.991,9.313,9.991,9.313l-12.989-0.665
	l-2.996-4.324l-2.332,0.332l-0.334,1.331l-1.664,3.991l-3.331,0.665l-4.328-0.665v-4.324h-4.664l-0.331,6.32l4.329,9.645
	l5.662,2.329l2.995,1.663l-6.327,3.991c0,0-0.332,2.329-0.666,4.657c-0.332,2.329-2.664,2.994-2.664,2.994s-2.664,0-3.995-2.329
	c-1.332-2.329-9.326-9.646-9.326-9.646v-11.642l-7.325-0.332c0,0-6.66-2.662-12.322,0c-5.662,2.661-6.662,12.306-6.662,12.306
	l-2.33,5.655l-4.664,1.996c0,0,0,0.001,0-7.982c0-7.98-6.659-11.642-6.659-11.642l-21.313-12.643l-1.998-3.655l-1-5.322v-3.991
	l-4.33-0.998l-1.664-5.322l3.33-1.33c0,0,0-2.993,0-4.324s-2.998-1.331-2.998-1.331s-1-2.328-0.666-5.321
	c0.332-2.993,7.328-8.648,7.328-8.648l9.324-9.645l3.662,3.658l1.331-0.665l-2.997-4.324c0,0-0.996-1.33-1.33-3.326
	c-0.332-1.996-6.994,3.991-6.994,3.991s-5.662,6.985-9.326,10.643c-3.664,3.659-6.994,6.985-6.994,9.313s-2.33,14.634-2.33,14.634
	l-28.977-2.993l-3.664-1.331L511,381.906l2.332-2.328L513,375.254h-3.664c0,0,0-3.326-0.334-4.989
	c-0.332-1.664,5.662-9.979,5.662-9.979s8.99-10.644,9.99-10.644s2.331,3.659,2.331,3.659l0.332-3.991c0,0,1.665-1.331,1.331-5.655
	c-0.332-4.324-4.329,0-4.329,0l-12.985,12.307l-7.994,7.317l-1.664,7.65l-2,17.96l-11.989-6.32l-1.332,0.333v1.996l0.333,7.65
	l-2.664,3.659l-2.998,1.33l-1.332,3.659l-1.664,0.332l-2.664-19.292l-20.315-15.3l-0.999,1.331v5.987l1.665-1.664l11.657,10.311
	l2.332,5.654l-1.665,1.995l-0.999,2.994l2.997,3.659v1.663l-1.332,2.329l-2.332,1.992l-8.659,0.332l-5.329,4.989l-2.331-1.33
	l-17.65-3.659l2.997-2.657l11.657-1.331l2.998-3.326l4.328-3.991l-0.333-7.317l-10.657-2.994l-8.326-3.991l-10.321-7.317
	l-16.32-9.978l-3.997,7.982l4.33-3.659l10.325,8.98l-0.667,3.326l-1,6.319l-16.652,2.661l-6.327-0.666l-2.331-4.989l-4.663,2.329
	l-4.995-0.333h-6.991l-5.995,2.994l-0.666-3.991l-6.328,0.666l-0.999,4.989l-4.995,0.332l-8.659-1.33l-0.333,5.654l-6.66-1.331
	l-2.664-8.647l-7.991-7.649l-3.997,7.317l-3.997-3.326l0.666-4.657l-8.327-5.654v4.989l-3.33,4.989l0.333,4.656l-5.329-0.332
	l0.666-2.994l-5.328-5.987l-1.998,1.996l-11.657,3.326l6.994,3.326l-12.656,0.998l-13.988,4.989l-1.332,11.641l19.65,55.545
	l-3.664,5.985l-8.327,0.662l-5.328,0.333l-2.998-2.657v3l4.329,6.98l3.664,2.328h-5.995l-11.989-0.333l-2.332,6.319l-7.994-13.974
	l-73.938,1.251l4.33,3.757c0,0,0,8.134,0,9.385c0,1.252-1.998,5.313-1.998,5.313l-5.663,1.251l1,3.44l-10.324,0.938l-0.999-3.438
	V470.92h-6.328l0.333,13.763l-2.998,5.01l-19.983-0.313v-5.005l-4.664-5.318v-5.63h-5.995l-0.666,5.317l-8.992,3.438v4.066
	l-2.332,1.251L103.997,490l-4.331-0.625L100.333,186h799.646V485.34z"/>
</svg>
